<?xml version="1.0" encoding="utf-8"?>
<!-- Generator: Adobe Illustrator 22.1.0, SVG Export Plug-In . SVG Version: 6.00 Build 0)  -->
<svg version="1.1" id="Слой_1" xmlns="http://www.w3.org/2000/svg" xmlns:xlink="http://www.w3.org/1999/xlink" x="0px" y="0px" width="20" height="20"
		 viewBox="0 0 16.2 9.2" style="enable-background:new 0 0 16.2 9.2;" xml:space="preserve">
	<style type="text/css">
		.st0{fill:#fff;
		}
	</style>
	<path class="st0" d="M7.8,9.1L0.1,1.4C0,1.3,0,1,0.1,0.9l0.7-0.7C0.9,0,1,0,1.1,0c0.1,0,0.2,0,0.3,0.1l6.7,6.7l6.7-6.7
		C14.8,0,14.9,0,15,0c0.1,0,0.2,0,0.3,0.1l0.7,0.7c0.1,0.1,0.1,0.2,0.1,0.3c0,0.1,0,0.2-0.1,0.3L8.4,9.1C8.2,9.3,8,9.3,7.8,9.1z"/>
</svg>
